/* XPM */
static char * macro_xpm[] = {
"20 20 5 1",
" 	c None",
".	c #000000",
"+	c #FFFFFF",
"@	c #BDBDBD",
"#	c #838282",
"                    ",
"                    ",
"                    ",
"                    ",
"    ............    ",
"   ..+@@@@@@@@@..   ",
"   .++@@..@@@@@#.   ",
"   .++@.@@.@@@@#.   ",
"   .++@....@@@@#.   ",
"   .++@.@@.@@@@#.   ",
"   .++@.@@.@@@@#.   ",
"   .++@@@@@@@@@#.   ",
"   .++##########.   ",
"   .+###########.   ",
"   ..##########..   ",
"    ............    ",
"                    ",
"                    ",
"                    ",
"                    "};
