/* XPM */
static char * trig_off_xpm[] = {
"20 20 101 2",
"  	c None",
". 	c #FF0000",
"+ 	c #828181",
"@ 	c #C93737",
"# 	c #D42B2B",
"$ 	c #E20E0E",
"% 	c #FE0E0E",
"& 	c #C1C1C1",
"* 	c #DB4444",
"= 	c #FA0808",
"- 	c #F41515",
"; 	c #7D4141",
"> 	c #FC5656",
", 	c #FE0202",
"' 	c #FB6666",
") 	c #F7F0F0",
"! 	c #F7F7F7",
"~ 	c #FD3333",
"{ 	c #FE0707",
"] 	c #FE1616",
"^ 	c #F8BEBE",
"/ 	c #F7F2F2",
"( 	c #EFEFEF",
"_ 	c #B76C6C",
": 	c #E32A2A",
"< 	c #FA0606",
"[ 	c #C95151",
"} 	c #9C9494",
"| 	c #9E9191",
"1 	c #DC3333",
"2 	c #F31010",
"3 	c #AD7B7B",
"4 	c #9A9898",
"5 	c #9A9999",
"6 	c #3B3B3B",
"7 	c #B68B8B",
"8 	c #961D1D",
"9 	c #F10303",
"0 	c #F00404",
"a 	c #A01A1A",
"b 	c #8A2020",
"c 	c #E60707",
"d 	c #F40202",
"e 	c #543030",
"f 	c #393838",
"g 	c #060606",
"h 	c #E7E6E6",
"i 	c #B1B0B0",
"j 	c #362020",
"k 	c #6B0000",
"l 	c #B91715",
"m 	c #A80000",
"n 	c #8F0A0A",
"o 	c #261818",
"p 	c #010000",
"q 	c #000000",
"r 	c #D5D5D5",
"s 	c #747373",
"t 	c #140000",
"u 	c #E0837A",
"v 	c #AD1412",
"w 	c #EA0000",
"x 	c #733636",
"y 	c #838282",
"z 	c #520000",
"A 	c #DB9B8F",
"B 	c #EE0403",
"C 	c #DC0D0D",
"D 	c #9B6868",
"E 	c #D6D5D5",
"F 	c #A7A6A6",
"G 	c #727171",
"H 	c #881F1F",
"I 	c #E30000",
"J 	c #C32323",
"K 	c #B91C1C",
"L 	c #F60404",
"M 	c #FA0505",
"N 	c #FFFFFF",
"O 	c #C7C7C7",
"P 	c #8F4949",
"Q 	c #CC0000",
"R 	c #D32D2D",
"S 	c #897979",
"T 	c #E91616",
"U 	c #C3C3C3",
"V 	c #8E7070",
"W 	c #D51818",
"X 	c #F90000",
"Y 	c #9D7C7C",
"Z 	c #D11A1A",
"` 	c #F80000",
" .	c #F60000",
"..	c #515050",
"+.	c #682A2A",
"@.	c #EA0303",
"#.	c #A70000",
"$.	c #070000",
"%.	c #2C0000",
"&.	c #420000",
"*.	c #050000",
"                                        ",
"                                        ",
"                                        ",
"        . .               + @ #         ",
"        $ . %           & * = -         ",
"        ; > , ' ) ! ! ! ~ { ] ^ / (     ",
"          _ : < [ } | 1 . 2 3 4 5 6     ",
"          7 8 9 0 a b c d e f f f g     ",
"        h i j k l . m n o p q q q q     ",
"        r + s t u v w x y               ",
"        r + s z A B m C D               ",
"      E F G H I . J K L M               ",
"    N O + P Q . R + S T . .             ",
"    ! U V W X .         . . .           ",
"    & Y Z `  .            . . .         ",
"    ..+.@.#.                . .         ",
"    $.%.&.*.                            ",
"                                        ",
"                                        ",
"                                        "};
