/* XPM */
static char * parsing_off_xpm[] = {
"24 24 211 2",
"  	c None",
". 	c #A98C00",
"+ 	c #A88B00",
"@ 	c #A58700",
"# 	c #A68800",
"$ 	c #A98B00",
"% 	c #A78900",
"& 	c #CAB332",
"* 	c #E7D86F",
"= 	c #F0E484",
"- 	c #F7EC98",
"; 	c #F5EA92",
"> 	c #E7D869",
", 	c #B49A17",
"' 	c #AA8C00",
") 	c #EFE06F",
"! 	c #F9F0A6",
"~ 	c #F8EFA3",
"{ 	c #F9F0A5",
"] 	c #F5E878",
"^ 	c #F1DE3A",
"/ 	c #F3E253",
"( 	c #F3E78E",
"_ 	c #AB8F0D",
": 	c #D4B900",
"< 	c #C8B025",
"[ 	c #BAA121",
"} 	c #A78A04",
"| 	c #AF9314",
"1 	c #D3BF4F",
"2 	c #F7EC93",
"3 	c #EED60C",
"4 	c #F4E567",
"5 	c #D9C54D",
"6 	c #A88A00",
"7 	c #1E2E57",
"8 	c #85192F",
"9 	c #A78A00",
"0 	c #DAC95E",
"a 	c #F4E669",
"b 	c #F1C92C",
"c 	c #EEC169",
"d 	c #AD8400",
"e 	c #232E55",
"f 	c #7C6A84",
"g 	c #AE1423",
"h 	c #DB070D",
"i 	c #B69C22",
"j 	c #FA864E",
"k 	c #F66C09",
"l 	c #F6BE7A",
"m 	c #A98700",
"n 	c #213C66",
"o 	c #CBC2D3",
"p 	c #BE293B",
"q 	c #FF0000",
"r 	c #F10205",
"s 	c #A48600",
"t 	c #DC3A07",
"u 	c #FE0C07",
"v 	c #FC1D01",
"w 	c #F9CA86",
"x 	c #A58600",
"y 	c #15315B",
"z 	c #7A9CC2",
"A 	c #C0D5EA",
"B 	c #624570",
"C 	c #C52535",
"D 	c #FC0001",
"E 	c #D6080F",
"F 	c #F5260E",
"G 	c #FE0705",
"H 	c #FE150E",
"I 	c #F1A403",
"J 	c #F9EBA1",
"K 	c #D4C049",
"L 	c #395780",
"M 	c #8FB3D9",
"N 	c #B7CFE7",
"O 	c #2B4680",
"P 	c #6E3E66",
"Q 	c #D11D2A",
"R 	c #F60204",
"S 	c #C70B15",
"T 	c #FC0300",
"U 	c #FA1609",
"V 	c #F7BC68",
"W 	c #EED50D",
"X 	c #F6EA82",
"Y 	c #DECC5A",
"Z 	c #17345D",
"` 	c #8CAED4",
" .	c #7DA7D3",
"..	c #B6CEE7",
"+.	c #204A87",
"@.	c #453D70",
"#.	c #922D4B",
"$.	c #F3070A",
"%.	c #EF0407",
"&.	c #D30910",
"*.	c #FE0000",
"=.	c #B47500",
"-.	c #E2D26A",
";.	c #F8EE9D",
">.	c #E6D669",
",.	c #A78901",
"'.	c #5C7DA3",
").	c #89AFD7",
"!.	c #729FCF",
"~.	c #33437B",
"{.	c #1B3252",
"].	c #C12839",
"^.	c #E70409",
"/.	c #A88A03",
"(.	c #D8C44F",
"_.	c #85A9CF",
":.	c #87ADD6",
"<.	c #739FCF",
"[.	c #405083",
"}.	c #314766",
"|.	c #BA2435",
"1.	c #ED0306",
"2.	c #A58800",
"3.	c #1B3862",
"4.	c #84A6CC",
"5.	c #8AAFD7",
"6.	c #264F8A",
"7.	c #44679A",
"8.	c #8D4968",
"9.	c #643353",
"0.	c #F00305",
"a.	c #EE0306",
"b.	c #17335D",
"c.	c #7596BC",
"d.	c #C4D7EC",
"e.	c #3A5F95",
"f.	c #5172A1",
"g.	c #93314A",
"h.	c #D00A12",
"i.	c #FD0000",
"j.	c #6D0000",
"k.	c #8F0000",
"l.	c #8D0000",
"m.	c #8096B3",
"n.	c #486A99",
"o.	c #602848",
"p.	c #DD060C",
"q.	c #ED0000",
"r.	c #FB0303",
"s.	c #8D4140",
"t.	c #D25F5F",
"u.	c #C34242",
"v.	c #AC2626",
"w.	c #8E0101",
"x.	c #342A4E",
"y.	c #7A0000",
"z.	c #E92222",
"A.	c #FB0505",
"B.	c #B92525",
"C.	c #CC2121",
"D.	c #CA3737",
"E.	c #BD3A3A",
"F.	c #B22626",
"G.	c #A34241",
"H.	c #F30E0E",
"I.	c #F20909",
"J.	c #CB0E0E",
"K.	c #C60000",
"L.	c #900000",
"M.	c #CA3F3F",
"N.	c #D82B2B",
"O.	c #C51F1E",
"P.	c #F50A0A",
"Q.	c #A30202",
"R.	c #CD0000",
"S.	c #C51212",
"T.	c #C13F3F",
"U.	c #8E0000",
"V.	c #D34B4B",
"W.	c #D30A0A",
"X.	c #DB0E0E",
"Y.	c #D20C0C",
"Z.	c #A40202",
"`.	c #E40000",
" +	c #D20000",
".+	c #C30606",
"++	c #C94B4B",
"@+	c #C73F3F",
"#+	c #CF1212",
"$+	c #D50000",
"%+	c #DC0000",
"&+	c #DD0000",
"*+	c #D60000",
"=+	c #CC0000",
"-+	c #C41212",
";+	c #AE2626",
">+	c #CE3737",
",+	c #C90000",
"'+	c #CE0000",
")+	c #CF0000",
"!+	c #CB0000",
"~+	c #C40000",
"{+	c #C93737",
"]+	c #BE3A3A",
"^+	c #C20606",
"/+	c #C31212",
"(+	c #C83737",
"_+	c #BC3A3A",
":+	c #BF3F3F",
"<+	c #C74B4B",
"[+	c #BE3F3F",
"                        . + @ # $               ",
"                    % & * = - ; > ,             ",
"                  ' ) ! ~ { ] ^ / ( _           ",
"                @ : < [ } | 1 2 3 4 5 6         ",
"          7 8   % %         9 0 a b c d         ",
"        e f g h               i j k l m         ",
"        n o p q r       s s s t u v w x s s s   ",
"      y z A B C D E       6 F G H I J ! K 6     ",
"      L M N O P Q R S     T q U V W X Y 9       ",
"    Z `  ...+.@.#.$.%.&.  q *.=.-.;.>.,.        ",
"    '.).!...+.+.~.{.].q ^.q     /.(./.          ",
"  y _.:.<...+.+.+.[.}.|.1.        2.            ",
"    3.4.5.N +.6.7.8.9.0.a.q                     ",
"      b.c.d.e.f.g.h.q q q q i.j.k.l.k.k.        ",
"        y m.n.o.p.q q     q.q r.s.t.u.v.w.      ",
"          y x.1.q q       y.z.q A.B.C.D.E.w.    ",
"            i.q q       k.F.G.H.*.I.J.K.D.v.k.  ",
"            q q         L.M.N.O.P.q Q.R.S.T.k.  ",
"                        U.V.W.X.Y.Z.`. +.+++l.  ",
"                        k.@+#+$+%+&+*+=+-+T.k.  ",
"                        k.;+>+,+'+)+!+~+{+v.k.  ",
"                          w.]+D.-+^+/+(+_+w.    ",
"                            w.v.:+<+[+v.w.      ",
"                              k.k.l.k.k.        "};
