/* XPM */
static char * parsing_xpm[] = {
"24 24 179 2",
"  	c None",
". 	c #A98C00",
"+ 	c #A88B00",
"@ 	c #A58700",
"# 	c #A68800",
"$ 	c #A98B00",
"% 	c #A78900",
"& 	c #CAB332",
"* 	c #E7D86F",
"= 	c #F0E484",
"- 	c #F7EC98",
"; 	c #F5EA92",
"> 	c #E7D869",
", 	c #B49A17",
"' 	c #AA8C00",
") 	c #EFE06F",
"! 	c #F9F0A6",
"~ 	c #F8EFA3",
"{ 	c #F9F0A5",
"] 	c #F5E878",
"^ 	c #F1DE3A",
"/ 	c #F3E253",
"( 	c #F3E78E",
"_ 	c #AB8F0D",
": 	c #D4B900",
"< 	c #C8B025",
"[ 	c #BAA121",
"} 	c #A78A04",
"| 	c #AF9314",
"1 	c #D3BF4F",
"2 	c #F7EC93",
"3 	c #EED60C",
"4 	c #F4E567",
"5 	c #D9C54D",
"6 	c #A88A00",
"7 	c #15315B",
"8 	c #A78A00",
"9 	c #DAC95E",
"0 	c #F4E669",
"a 	c #F0DC31",
"b 	c #ECDF7A",
"c 	c #657D9C",
"d 	c #1D3964",
"e 	c #B69C22",
"f 	c #F7EB89",
"g 	c #EED712",
"h 	c #F4E996",
"i 	c #213D67",
"j 	c #C6D9EC",
"k 	c #5171A0",
"l 	c #1E3C66",
"m 	c #A48600",
"n 	c #AB9012",
"o 	c #F7ED98",
"p 	c #EED508",
"q 	c #F8EE9E",
"r 	c #7A9CC2",
"s 	c #C0D5EA",
"t 	c #345A92",
"u 	c #5072A1",
"v 	c #203D68",
"w 	c #D1BD49",
"x 	c #EDD504",
"y 	c #D4C049",
"z 	c #395780",
"A 	c #8FB3D9",
"B 	c #B7CFE7",
"C 	c #204A87",
"D 	c #325991",
"E 	c #5172A1",
"F 	c #213E6A",
"G 	c #DAC95A",
"H 	c #F6EA82",
"I 	c #EED60E",
"J 	c #DECC5A",
"K 	c #17345D",
"L 	c #8CAED4",
"M 	c #7DA7D3",
"N 	c #B6CEE7",
"O 	c #315790",
"P 	c #23406B",
"Q 	c #A78A01",
"R 	c #E2D26A",
"S 	c #F8EE9D",
"T 	c #E6D669",
"U 	c #A78901",
"V 	c #5C7DA3",
"W 	c #89AFD7",
"X 	c #729FCF",
"Y 	c #30578F",
"Z 	c #24426D",
"` 	c #A88A03",
" .	c #D8C44F",
"..	c #85A9CF",
"+.	c #87ADD6",
"@.	c #739FCF",
"#.	c #4E70A0",
"$.	c #436391",
"%.	c #A58800",
"&.	c #1B3862",
"*.	c #84A6CC",
"=.	c #8AAFD7",
"-.	c #264F8A",
";.	c #44679A",
">.	c #294874",
",.	c #17335D",
"'.	c #7596BC",
").	c #C4D7EC",
"!.	c #3A5F95",
"~.	c #3B5A89",
"{.	c #8F0000",
"].	c #8D0000",
"^.	c #8096B3",
"/.	c #486A99",
"(.	c #1E3A66",
"_.	c #910606",
":.	c #B83F3F",
"<.	c #CF605F",
"[.	c #D25F5F",
"}.	c #C34242",
"|.	c #AC2626",
"1.	c #8E0101",
"2.	c #8F0101",
"3.	c #CC5050",
"4.	c #DB5D5D",
"5.	c #D53E3E",
"6.	c #D02A2A",
"7.	c #CC2121",
"8.	c #CA3737",
"9.	c #BD3A3A",
"0.	c #B22626",
"a.	c #DC5A59",
"b.	c #D92E2E",
"c.	c #DE2524",
"d.	c #DA1B1B",
"e.	c #D30F0F",
"f.	c #C60000",
"g.	c #900000",
"h.	c #CA3F3F",
"i.	c #D82B2B",
"j.	c #E12423",
"k.	c #E91A1A",
"l.	c #E61010",
"m.	c #DB0404",
"n.	c #CD0000",
"o.	c #C51212",
"p.	c #C13F3F",
"q.	c #8E0000",
"r.	c #D34B4B",
"s.	c #D30A0A",
"t.	c #DF0F0F",
"u.	c #EA0E0E",
"v.	c #E80303",
"w.	c #DC0000",
"x.	c #CF0000",
"y.	c #C30606",
"z.	c #C94B4B",
"A.	c #C73F3F",
"B.	c #CF1212",
"C.	c #D50000",
"D.	c #DD0000",
"E.	c #D60000",
"F.	c #CC0000",
"G.	c #C41212",
"H.	c #AE2626",
"I.	c #CE3737",
"J.	c #C90000",
"K.	c #CE0000",
"L.	c #CB0000",
"M.	c #C40000",
"N.	c #C93737",
"O.	c #BE3A3A",
"P.	c #C20606",
"Q.	c #C31212",
"R.	c #C83737",
"S.	c #BC3A3A",
"T.	c #BF3F3F",
"U.	c #C74B4B",
"V.	c #BE3F3F",
"                        . + @ # $               ",
"                    % & * = - ; > ,             ",
"                  ' ) ! ~ { ] ^ / ( _           ",
"                @ : < [ } | 1 2 3 4 5 6         ",
"          7     % %         8 9 0 a b .         ",
"        7 c d                 e f g h 6         ",
"        i j k l         m m m n o p q @ m m m   ",
"      7 r s t u v         6 w ! { x { ! y 6     ",
"      z A B C D E F         6 G H I H J 8       ",
"    K L M N C C O u P         Q R S T U         ",
"    V W X N C C C Y E Z         `  .`           ",
"  7 ..+.@.N C C C Y #.$.7         %.            ",
"    &.*.=.B C -.;.k >.7                         ",
"      ,.'.).!.E ~.,.          {.{.].{.{.        ",
"        7 ^./.(.7           _.:.<.[.}.|.1.      ",
"          7 7             2.3.4.5.6.7.8.9.1.    ",
"                        {.0.a.b.c.d.e.f.8.|.{.  ",
"                        g.h.i.j.k.l.m.n.o.p.{.  ",
"                        q.r.s.t.u.v.w.x.y.z.].  ",
"                        {.A.B.C.w.D.E.F.G.p.{.  ",
"                        {.H.I.J.K.x.L.M.N.|.{.  ",
"                          1.O.8.G.P.Q.R.S.1.    ",
"                            1.|.T.U.V.|.1.      ",
"                              {.{.].{.{.        "};
