/* XPM */
static char * trig_xpm[] = {
"20 20 46 1",
" 	c None",
".	c #828181",
"+	c #C1C1C1",
"@	c #A9A9A9",
"#	c #ACACAC",
"$	c #565555",
"%	c #F7F7F7",
"&	c #EFEFEF",
"*	c #9A9999",
"=	c #3B3B3B",
"-	c #A8A8A8",
";	c #393838",
">	c #060606",
",	c #E7E6E6",
"'	c #B1B0B0",
")	c #242424",
"!	c #000000",
"~	c #41403B",
"{	c #10100E",
"]	c #161616",
"^	c #1A1A1A",
"/	c #D5D5D5",
"(	c #747373",
"_	c #D0CEBF",
":	c #34332F",
"<	c #484848",
"[	c #838282",
"}	c #D6D5D5",
"|	c #A7A6A6",
"1	c #727171",
"2	c #363535",
"3	c #A7A59E",
"4	c #605F5E",
"5	c #494949",
"6	c #5D5D5D",
"7	c #FFFFFF",
"8	c #C7C7C7",
"9	c #656565",
"0	c #C3C3C3",
"a	c #807F7F",
"b	c #606060",
"c	c #8F8F8F",
"d	c #5F5E5E",
"e	c #171717",
"f	c #515151",
"g	c #262525",
"                    ",
"                    ",
"                    ",
"             ...    ",
"            +@@#    ",
"    $%%%%%%%%%%%%&  ",
"     ************=  ",
"     -;;;;;;;;;;;>  ",
"    ,')!~{!]^!!!!!  ",
"    /.(!_:!<[       ",
"    /.(!_:!<[       ",
"   }|12 3456        ",
"  78.9! [..         ",
"  %0ab!             ",
"  +cde              ",
"  f;g!              ",
"  !!!!              ",
"                    ",
"                    ",
"                    "};
