/* XPM */
static char * green_xpm[] = {
"14 14 79 1",
" 	c None",
".	c #8BBB73",
"+	c #70A95D",
"@	c #6BA659",
"#	c #519444",
"$	c #4C9140",
"%	c #307F29",
"&	c #8BBB73",
"*	c #65A154",
"=	c #619F51",
"-	c #5B9B4C",
";	c #307F29",
">	c #88B971",
",	c #87B871",
"'	c #75AC61",
")	c #70A95D",
"!	c #4C9140",
"~	c #478E3C",
"{	c #33812C",
"]	c #87B871",
"^	c #83B56D",
"/	c #75AC61",
"(	c #65A154",
"_	c #52944A",
":	c #478E3C",
"<	c #448C3A",
"[	c #398530",
"}	c #33812C",
"|	c #87B871",
"1	c #83B56D",
"2	c #7AAF65",
"3	c #6BA659",
"4	c #619F51",
"5	c #5B9B4C",
"6	c #519444",
"7	c #448C3A",
"8	c #3A8C31",
"9	c #398530",
"0	c #33812C",
"a	c #E0F2DC",
"b	c #DCF1D8",
"c	c #D7EED2",
"d	c #CBE6C3",
"e	c #C5E8C0",
"f	c #BDE4B6",
"g	c #B5DFAC",
"h	c #BBDCAF",
"i	c #AFDFA5",
"j	c #B5DBA8",
"k	c #B4D9A5",
"l	c #A5DB9B",
"m	c #ABD49C",
"n	c #9DD892",
"o	c #96D48B",
"p	c #A4CE94",
"q	c #8CD684",
"r	c #99D18B",
"s	c #97CC85",
"t	c #93CD88",
"u	c #8ACF7D",
"v	c #8ECC84",
"w	c #97C785",
"x	c #86C97A",
"y	c #8AC279",
"z	c #7AC66B",
"A	c #8DBE7B",
"B	c #7DBE67",
"C	c #7DB96B",
"D	c #71BE5F",
"E	c #7CBA64",
"F	c #73BA5C",
"G	c #74B75B",
"H	c #78B464",
"I	c #6EB558",
"J	c #6CAA5A",
"K	c #68AB53",
"L	c #579E45",
"M	c #509941",
"N	c #448C3A",
"     ^12/     ",
"   |pdcdhC3   ",
"  |haflniey4  ",
" ]jbntvooqgC_ ",
" wcnoFFFFzzgL ",
"^givFFFFFFFrw:",
"2foxFFFFFIIBm7",
"2juFFFFFIIIBm8",
"/sozDFFIIIFsA[",
" KgBDFIIIIGkN ",
" (CjFFIIIGkJ} ",
"  5HjsBEskJ0  ",
"   6MAppyN0   ",
"     <79[     "};
