/* XPM */
static char * alias_xpm[] = {
"20 20 2 1",
" 	c None",
".	c #071898",
"                    ",
"                    ",
"                    ",
"                    ",
"                    ",
"                    ",
"        ..          ",
"        ..          ",
"        ..          ",
"  ....  ....   ...  ",
"     .. .. .. ..    ",
"  ..... .. .. ..    ",
"  .. .. .. .. ..    ",
"  ..... ....   ...  ",
"                    ",
"                    ",
"                    ",
"                    ",
"                    ",
"                    "};
