/* XPM */
static char * red_xpm[] = {
"14 14 82 1",
" 	c None",
".	c #DE4F4F",
"+	c #D6372B",
"@	c #B3331E",
"#	c #932E12",
"$	c #DE4F4F",
"%	c #C93526",
"&	c #CC3327",
"*	c #BD3422",
"=	c #C23223",
"-	c #932E12",
";	c #DD4A4A",
">	c #D63A33",
",	c #D6372B",
"'	c #B3331E",
")	c #AB321A",
"!	c #993014",
"~	c #DD4A4A",
"{	c #DD4B44",
"]	c #D83B3B",
"^	c #D63A33",
"/	c #CF3828",
"(	c #BD3422",
"_	c #AB321A",
":	c #9D2F16",
"<	c #993014",
"[	c #DD4A4A",
"}	c #DE433F",
"|	c #D83B3B",
"1	c #CF3828",
"2	c #C93526",
"3	c #BD3422",
"4	c #C23223",
"5	c #A43019",
"6	c #993014",
"7	c #9D2F16",
"8	c #F8D9D5",
"9	c #F8D5CF",
"0	c #F6CEC9",
"a	c #F4C5BD",
"b	c #F3BDB2",
"c	c #F3B9B4",
"d	c #F2B2A7",
"e	c #F1AFA6",
"f	c #F0A99D",
"g	c #EEA49D",
"h	c #EFA194",
"i	c #EE9D9B",
"j	c #ED9C94",
"k	c #ED9688",
"l	c #ED9492",
"m	c #EA8A85",
"n	c #EC8B7B",
"o	c #EA8785",
"p	c #EB8574",
"q	c #EA8473",
"r	c #E97E72",
"s	c #E77D6C",
"t	c #E77C7A",
"u	c #E57664",
"v	c #E6716B",
"w	c #E5705C",
"x	c #E66C69",
"y	c #E36360",
"z	c #E46251",
"A	c #E16158",
"B	c #E05C55",
"C	c #E15C42",
"D	c #DF5B58",
"E	c #E2594B",
"F	c #DD4F48",
"G	c #DD4B44",
"H	c #DF4B3C",
"I	c #DE433F",
"J	c #DB423A",
"K	c #DD3D36",
"L	c #DD3A32",
"M	c #D6372B",
"N	c #D62F27",
"O	c #BD3422",
"P	c #C23223",
"Q	c #AB321A",
"     ~}|]     ",
"   [tc0agF1   ",
"  [i8dkmjbA2  ",
" ~j9nssqqsfF( ",
" x0mqIIIIEzgP ",
"{ihuIIIIIIKry_",
"}epwIIIIILLFm5",
"|huIIIIILLLGo5",
"^srECIILLLKvD:",
" NhGHILLLLLlQ ",
" /GjIKLLLLlM< ",
"  4JjvIIxlM6  ",
"   3OAttBQ6   ",
"     _57:     "};
